<svg width="18" height="18" viewBox="0 0 18 18" fill="none" xmlns="http://www.w3.org/2000/svg">
<path fill-rule="evenodd" clip-rule="evenodd" d="M1.26439 2.4065L1.32485 2.34332C2.93103 0.736992 3.977 0.311219 5.09302 0.952978C5.41404 1.13758 5.715 1.39599 6.12425 1.81163L7.37955 3.11332C8.07291 3.8699 8.23053 4.59561 8.00476 5.4455L7.97366 5.55802L7.93914 5.66989L7.77132 6.16225C7.41215 7.26639 7.5621 7.88936 8.84001 9.16694C10.1689 10.4955 10.7893 10.6042 11.9786 10.1886L12.1905 10.1149L12.4469 10.0317L12.559 10.0006C13.4624 9.75954 14.2255 9.95188 15.0348 10.7606L16.0462 11.7376L16.344 12.0304C16.6741 12.3671 16.8922 12.6338 17.0534 12.9157C17.6911 14.0314 17.2649 15.0767 15.6124 16.7231L15.4552 16.8824C15.2084 17.1201 14.9779 17.2905 14.6393 17.4513C14.0709 17.7212 13.3993 17.8229 12.619 17.7144C10.6961 17.447 8.25726 15.9298 5.16703 12.8403C4.91547 12.5889 4.67455 12.3422 4.444 12.1004L3.99669 11.623C-0.194854 7.069 -0.564633 4.27153 1.15311 2.51705L1.26439 2.4065ZM5.11247 2.5674C4.84098 2.29974 4.64376 2.13657 4.46989 2.03659C4.08529 1.81543 3.67004 1.90891 2.90154 2.57036L2.66007 2.78608C2.61795 2.82496 2.57487 2.86532 2.53078 2.9072L2.25388 3.17689L2.22894 3.20806L2.04122 3.39665C1.58759 3.85999 1.37272 4.42549 1.55788 5.39802C1.86172 6.99387 3.25248 9.15873 6.0508 11.9563C8.96653 14.8713 11.1881 16.2534 12.7911 16.4763C13.7256 16.6063 14.2023 16.38 14.6884 15.882L15.0591 15.5079C15.233 15.3259 15.3815 15.1611 15.5069 15.0104L15.678 14.7949C16.1152 14.2125 16.1551 13.8631 15.9682 13.536C15.897 13.4116 15.7935 13.2751 15.6429 13.1083L15.4385 12.8925L15.3176 12.7715L14.0415 11.5393C13.6151 11.1461 13.3237 11.0903 12.8813 11.2083L12.7535 11.245L12.225 11.4245C10.6915 11.9197 9.58529 11.6796 7.95624 10.0509C6.26904 8.36417 6.07117 7.23777 6.63648 5.61594L6.67274 5.51172L6.77303 5.20957L6.82232 5.01698C6.90974 4.59784 6.80994 4.3056 6.35937 3.85496C6.34082 3.83641 6.32008 3.81551 6.29752 3.79263L5.11247 2.5674Z" fill="#7E3F8F"/>
</svg>
