<svg id="cart_menu" xmlns="http://www.w3.org/2000/svg" width="24" height="24" viewBox="0 0 24 24">
  <path id="Vector" d="M24,0V24H0V0Z" fill="#afafaf" opacity="0"/>
  <path id="Vector-2" data-name="Vector" d="M1.75,3.5A1.75,1.75,0,1,1,3.5,1.75,1.75,1.75,0,0,1,1.75,3.5Z" transform="translate(14.5 19)" fill="#afafaf"/>
  <path id="Vector-3" data-name="Vector" d="M1.75,3.5A1.75,1.75,0,1,1,3.5,1.75,1.75,1.75,0,0,1,1.75,3.5Z" transform="translate(6.5 19)" fill="#afafaf"/>
  <path id="Vector-4" data-name="Vector" d="M3.39,5.14a.793.793,0,0,0,.8.86H19.5a.8.8,0,0,0,.8-.74,2.957,2.957,0,0,0-2.99-3.21H5.04A2.727,2.727,0,0,0,4.43.84,2.62,2.62,0,0,0,2.52,0H.75A.755.755,0,0,0,0,.75a.755.755,0,0,0,.75.75H2.49a1.1,1.1,0,0,1,1.1,1.19Z" transform="translate(1.25 1.25)" fill="#afafaf" opacity="0.4"/>
  <path id="Vector-5" data-name="Vector" d="M1.17,0a.8.8,0,0,0-.8.73L.01,5.08A2.928,2.928,0,0,0,2.92,8.25H14.04a3,3,0,0,0,2.93-2.73L17.3.85A.782.782,0,0,0,16.51,0Z" transform="translate(4 8.75)" fill="#afafaf"/>
</svg>
