<svg xmlns="http://www.w3.org/2000/svg" width="19" height="19" viewBox="0 0 19 19">
  <g id="vuesax_twotone_bag" data-name="vuesax/twotone/bag" transform="translate(0.5 0.5)">
    <g id="bag">
      <path id="Vector" d="M1.665,0h11.67C14.258,0,15,.112,15,1.5,15,3.113,14.258,3,13.335,3H1.665C.742,3,0,3.113,0,1.5,0,.112.742,0,1.665,0Z" transform="translate(1.5 4.388)" fill="none" stroke="#fff" stroke-width="1" stroke-dasharray="0 0"/>
      <g id="Group_676" data-name="Group 676" transform="translate(3.892 1.5)" opacity="0.4">
        <path id="Vector-2" data-name="Vector" d="M2.715,0,0,2.723" fill="none" stroke="#fff" stroke-linecap="round" stroke-linejoin="round" stroke-miterlimit="10" stroke-width="1" stroke-dasharray="0 0"/>
        <path id="Vector-3" data-name="Vector" d="M0,0,2.715,2.723" transform="translate(7.5)" fill="none" stroke="#fff" stroke-linecap="round" stroke-linejoin="round" stroke-miterlimit="10" stroke-width="1" stroke-dasharray="0 0"/>
        <path id="Vector-4" data-name="Vector" d="M0,0V2.662" transform="translate(3.428 9)" fill="none" stroke="#fff" stroke-linecap="round" stroke-width="1" stroke-dasharray="0 0"/>
        <path id="Vector-5" data-name="Vector" d="M0,0V2.662" transform="translate(6.877 9)" fill="none" stroke="#fff" stroke-linecap="round" stroke-width="1" stroke-dasharray="0 0"/>
      </g>
      <path id="Vector-6" data-name="Vector" d="M0,0,1.058,6.48C1.3,7.935,1.875,9,4.02,9H8.543c2.333,0,2.678-1.02,2.948-2.43L12.75,0" transform="translate(2.625 7.5)" fill="none" stroke="#fff" stroke-linecap="round" stroke-width="1" stroke-dasharray="0 0"/>
      <path id="Vector-7" data-name="Vector" d="M18,0V18H0V0Z" fill="none" stroke="#fff" stroke-width="1" opacity="0"/>
    </g>
  </g>
</svg>
