<svg xmlns="http://www.w3.org/2000/svg" width="21" height="21" viewBox="0 0 21 21">
  <g id="Layer_2" data-name="Layer 2" transform="translate(-0.36 -0.334)">
    <g id="edit-2" transform="translate(0 0)">
      <rect id="Rectangle_3683" data-name="Rectangle 3683" width="21" height="21" transform="translate(0.36 0.334)" fill="#e7e7e7" opacity="0"/>
      <path id="Path_17362" data-name="Path 17362" d="M17.388,20H4.893a.893.893,0,0,0,0,1.785h12.5a.893.893,0,1,0,0-1.785Z" transform="translate(-0.592 -2.311)" fill="#e7e7e7"/>
      <path id="Path_17363" data-name="Path 17363" d="M4.892,16.287h.08l3.722-.339a1.785,1.785,0,0,0,1.08-.509l8.033-8.033a1.714,1.714,0,0,0-.062-2.419L15.3,2.542a1.785,1.785,0,0,0-2.374-.062L4.892,10.512a1.785,1.785,0,0,0-.509,1.08L4,15.314a.89.89,0,0,0,.893.973Zm9.166-12.5L16.5,6.228,14.71,7.968,12.318,5.576ZM6.115,11.744,11.14,6.755l2.41,2.41-5,5-2.678.25Z" transform="translate(-0.591 -0.383)" fill="#e7e7e7"/>
    </g>
  </g>
</svg>
