<svg xmlns="http://www.w3.org/2000/svg" width="22" height="22" viewBox="0 0 22 22">
  <g id="Group_44087" data-name="Group 44087" transform="translate(-69 -290.625)">
    <path id="rectangle" d="M11,0A11,11,0,1,1,0,11,11,11,0,0,1,11,0Z" transform="translate(69 290.625)" fill="#ffa827" opacity="0.1"/>
    <g id="edit" transform="translate(75.096 296.364)">
      <path id="Path_18576" data-name="Path 18576" d="M9.055,44.347a.244.244,0,0,0-.244.244v2.169a.734.734,0,0,1-.733.733H1.222a.734.734,0,0,1-.733-.733V40.394a.734.734,0,0,1,.733-.733H3.391a.244.244,0,0,0,0-.489H1.222A1.223,1.223,0,0,0,0,40.394v6.367a1.223,1.223,0,0,0,1.222,1.222H8.077A1.223,1.223,0,0,0,9.3,46.761v-2.17a.244.244,0,0,0-.244-.244Zm0,0" transform="translate(0 -37.961)" fill="#ffa827" stroke="#ffa827" stroke-width="0.3"/>
      <path id="Path_18577" data-name="Path 18577" d="M114.749.583a1.1,1.1,0,0,0-1.555,0l-4.359,4.359a.244.244,0,0,0-.063.108L108.2,7.119a.244.244,0,0,0,.3.3l2.069-.573a.244.244,0,0,0,.108-.063l4.359-4.359a1.1,1.1,0,0,0,0-1.555ZM109.367,5.1l3.568-3.568,1.151,1.151-3.568,3.568Zm-.23.461.919.919-1.271.352Zm5.553-3.483-.259.259L113.28,1.187l.259-.259a.611.611,0,0,1,.864,0l.287.287A.612.612,0,0,1,114.69,2.079Zm0,0" transform="translate(-105.547 0)" fill="#ffa827"/>
    </g>
  </g>
</svg>
