<svg width="24" height="24" viewBox="0 0 24 24" fill="none" xmlns="http://www.w3.org/2000/svg">
<path d="M9.69601 13.248C9.62401 13.248 8.04001 13.248 7.32001 13.248C6.93601 13.248 6.81601 13.104 6.81601 12.744C6.81601 11.784 6.81601 10.8 6.81601 9.83995C6.81601 9.45595 6.96001 9.33595 7.32001 9.33595H9.69601C9.69601 9.26395 9.69601 7.87195 9.69601 7.22395C9.69601 6.26395 9.86401 5.35195 10.344 4.51195C10.848 3.64795 11.568 3.07195 12.48 2.73595C13.08 2.51995 13.68 2.42395 14.328 2.42395H16.68C17.016 2.42395 17.16 2.56795 17.16 2.90395V5.63995C17.16 5.97595 17.016 6.11995 16.68 6.11995C16.032 6.11995 15.384 6.11995 14.736 6.14395C14.088 6.14395 13.752 6.45595 13.752 7.12795C13.728 7.84795 13.752 8.54395 13.752 9.28795H16.536C16.92 9.28795 17.064 9.43195 17.064 9.81595V12.72C17.064 13.104 16.944 13.224 16.536 13.224C15.672 13.224 13.824 13.224 13.752 13.224V21.048C13.752 21.4559 13.632 21.6 13.2 21.6C12.192 21.6 11.208 21.6 10.2 21.6C9.84001 21.6 9.69601 21.456 9.69601 21.096C9.69601 18.576 9.69601 13.32 9.69601 13.248Z" fill="white"/>
</svg>
