<svg width="20" height="20" viewBox="0 0 20 20" fill="none" xmlns="http://www.w3.org/2000/svg">
<path fill-rule="evenodd" clip-rule="evenodd" d="M9.48841 1.00892C9.78932 0.77486 10.2107 0.77486 10.5116 1.00892L18.0116 6.84225C18.2146 7.00012 18.3333 7.24288 18.3333 7.50004V16.6667C18.3333 17.3298 18.0699 17.9656 17.6011 18.4345C17.1322 18.9033 16.4964 19.1667 15.8333 19.1667H4.16666C3.50361 19.1667 2.86773 18.9033 2.39889 18.4345C1.93005 17.9656 1.66666 17.3298 1.66666 16.6667V7.50004C1.66666 7.24288 1.78538 7.00012 1.98837 6.84225L9.48841 1.00892ZM3.33332 7.90761V16.6667C3.33332 16.8877 3.42112 17.0997 3.5774 17.256C3.73368 17.4122 3.94564 17.5 4.16666 17.5H15.8333C16.0543 17.5 16.2663 17.4122 16.4226 17.256C16.5788 17.0997 16.6667 16.8877 16.6667 16.6667V7.90761L9.99999 2.72242L3.33332 7.90761Z" fill="#7E3F8F"/>
<path fill-rule="evenodd" clip-rule="evenodd" d="M6.66666 9.99996C6.66666 9.53971 7.03976 9.16663 7.49999 9.16663H12.5C12.9602 9.16663 13.3333 9.53971 13.3333 9.99996V18.3333C13.3333 18.7935 12.9602 19.1666 12.5 19.1666C12.0397 19.1666 11.6667 18.7935 11.6667 18.3333V10.8333H8.33332V18.3333C8.33332 18.7935 7.96022 19.1666 7.49999 19.1666C7.03976 19.1666 6.66666 18.7935 6.66666 18.3333V9.99996Z" fill="#7E3F8F"/>
</svg>
