<svg width="20" height="20" viewBox="0 0 20 20" fill="none" xmlns="http://www.w3.org/2000/svg">
<path d="M13.0159 3.72423C12.0635 2.91709 11.0826 2.07978 10.0897 1.09011L9.52382 0.528198L8.96826 1.0909C7.18096 2.88296 6.33651 5.63454 5.96984 7.28534C5.68919 6.85034 5.48093 6.37272 5.35318 5.87106L5.01746 4.57502L4.04127 5.49249C2.33096 7.09804 1.19048 8.6909 1.19048 11.2417C1.17451 13.0816 1.77375 14.874 2.89303 16.3344C4.01231 17.7947 5.58744 18.8393 7.36826 19.302C7.90482 19.4325 8.45247 19.5122 9.00398 19.5401C9.17641 19.562 9.35001 19.5733 9.52382 19.5742C9.61505 19.5742 9.70401 19.5663 9.79286 19.5607C11.9549 19.4957 14.0065 18.5907 15.5121 17.0378C17.0177 15.4848 17.859 13.4062 17.8571 11.2433C17.8571 7.83534 15.6135 5.93058 13.0159 3.72423ZM9.68258 17.9735C9.60315 17.9735 9.52382 17.9814 9.43968 17.9806C8.72534 17.9587 8.04745 17.66 7.54925 17.1477C7.05106 16.6353 6.77157 15.9492 6.76984 15.2345C6.76984 14.2282 7.30953 13.7266 8.53096 12.6869C8.83889 12.425 9.17381 12.1401 9.5262 11.814C9.83496 12.094 10.135 12.3481 10.4119 12.5838C11.6389 13.625 12.2793 14.2163 12.2793 15.2321C12.278 15.9341 12.0084 16.6091 11.5256 17.1187C11.0428 17.6283 10.3834 17.9341 9.68258 17.9735ZM13.6667 16.5679L13.6508 16.579C13.7932 16.145 13.8661 15.6913 13.8667 15.2345C13.8667 13.4369 12.6873 12.4354 11.4397 11.3759C10.9976 11.0012 10.5412 10.614 10.0857 10.1583L9.52382 9.59729L8.9627 10.1583C8.44841 10.6719 7.94524 11.1004 7.50159 11.4782C6.25715 12.5369 5.18175 13.452 5.18175 15.2345C5.18344 15.7109 5.26389 16.1837 5.41984 16.6338C4.5937 15.9994 3.92538 15.1826 3.46706 14.2473C3.00875 13.312 2.77284 12.2833 2.77779 11.2417C2.76473 9.849 3.30377 8.50782 4.27699 7.51153C4.44462 7.85163 4.64336 8.1755 4.87064 8.47899C5.03664 8.70299 5.26456 8.87353 5.5263 8.96956C5.78804 9.0656 6.07217 9.08294 6.34365 9.01947C6.61983 8.95798 6.87246 8.81825 7.07133 8.61699C7.27021 8.41573 7.4069 8.16144 7.46508 7.88454C7.7974 6.06046 8.51613 4.32857 9.57305 2.80518C10.4103 3.59883 11.2397 4.30121 11.9881 4.93692C14.4738 7.04804 16.2738 8.57344 16.2738 11.2464C16.2757 12.274 16.0416 13.2881 15.5894 14.2108C15.1372 15.1335 14.4791 15.9399 13.6659 16.5679H13.6667Z" fill="#253D4E"/>
</svg>
