<svg width="25" height="25" viewBox="0 0 25 25" fill="none" xmlns="http://www.w3.org/2000/svg">
<g clip-path="url(#clip0_0_556)">
<path d="M24.6643 7.06849C24.608 5.79103 24.4014 4.91279 24.1055 4.15179C23.8002 3.34399 23.3305 2.62078 22.7152 2.01957C22.114 1.409 21.386 0.934565 20.5875 0.634051C19.8221 0.338124 18.9485 0.131544 17.671 0.0752201C16.384 0.0141267 15.9754 0 12.7113 0C9.44707 0 9.0385 0.0141267 7.75627 0.0704501C6.47881 0.126773 5.60057 0.333537 4.83974 0.629281C4.03177 0.934565 3.30855 1.40423 2.70734 2.01957C2.09678 2.62078 1.62252 3.34876 1.32183 4.1472C1.0259 4.91279 0.819318 5.78626 0.762995 7.06372C0.701901 8.35072 0.687775 8.7593 0.687775 12.0235C0.687775 15.2877 0.701901 15.6962 0.758225 16.9785C0.814548 18.2559 1.02131 19.1342 1.31724 19.8952C1.62252 20.703 2.09678 21.4262 2.70734 22.0274C3.30855 22.638 4.03654 23.1124 4.83497 23.4129C5.60057 23.7088 6.47404 23.9154 7.75168 23.9717C9.03373 24.0283 9.44248 24.0422 12.7067 24.0422C15.9709 24.0422 16.3794 24.0283 17.6617 23.9717C18.9391 23.9154 19.8174 23.7088 20.5782 23.4129C22.194 22.7882 23.4714 21.5108 24.0961 19.8952C24.3918 19.1296 24.5986 18.2559 24.6549 16.9785C24.7113 15.6962 24.7254 15.2877 24.7254 12.0235C24.7254 8.7593 24.7206 8.35072 24.6643 7.06849ZM22.4992 16.8845C22.4475 18.0587 22.2503 18.6928 22.0859 19.1155C21.6819 20.1629 20.8506 20.9941 19.8032 21.3981C19.3805 21.5625 18.7419 21.7597 17.5723 21.8113C16.3042 21.8678 15.9239 21.8817 12.716 21.8817C9.50816 21.8817 9.12307 21.8678 7.85956 21.8113C6.68539 21.7597 6.05134 21.5625 5.62864 21.3981C5.10742 21.2055 4.63298 20.9002 4.24789 20.501C3.84867 20.1111 3.54339 19.6415 3.35075 19.1202C3.18637 18.6975 2.98914 18.0587 2.93759 16.8893C2.88108 15.6212 2.86714 15.2407 2.86714 12.0328C2.86714 8.82498 2.88108 8.43989 2.93759 7.17655C2.98914 6.00239 3.18637 5.36833 3.35075 4.94563C3.54339 4.42423 3.84867 3.94998 4.25266 3.5647C4.64234 3.16548 5.112 2.8602 5.63341 2.66775C6.05611 2.50336 6.69493 2.30614 7.86433 2.2544C9.13243 2.19808 9.51293 2.18395 12.7206 2.18395C15.9332 2.18395 16.3136 2.19808 17.5771 2.2544C18.7513 2.30614 19.3853 2.50336 19.808 2.66775C20.3292 2.8602 20.8037 3.16548 21.1888 3.5647C21.588 3.95456 21.8933 4.42423 22.0859 4.94563C22.2503 5.36833 22.4475 6.00697 22.4992 7.17655C22.5556 8.44466 22.5697 8.82498 22.5697 12.0328C22.5697 15.2407 22.5556 15.6164 22.4992 16.8845Z" fill="white"/>
<path d="M12.7113 5.84741C9.30158 5.84741 6.53513 8.61368 6.53513 12.0235C6.53513 15.4334 9.30158 18.1997 12.7113 18.1997C16.1211 18.1997 18.8874 15.4334 18.8874 12.0235C18.8874 8.61368 16.1211 5.84741 12.7113 5.84741ZM12.7113 16.0298C10.4992 16.0298 8.70495 14.2357 8.70495 12.0235C8.70495 9.81133 10.4992 8.01724 12.7113 8.01724C14.9235 8.01724 16.7176 9.81133 16.7176 12.0235C16.7176 14.2357 14.9235 16.0298 12.7113 16.0298Z" fill="white"/>
<path d="M20.5736 5.60322C20.5736 6.39945 19.928 7.04506 19.1316 7.04506C18.3354 7.04506 17.6898 6.39945 17.6898 5.60322C17.6898 4.8068 18.3354 4.16138 19.1316 4.16138C19.928 4.16138 20.5736 4.8068 20.5736 5.60322Z" fill="white"/>
</g>
<defs>
<clipPath id="clip0_0_556">
<rect width="24" height="24.0423" fill="white" transform="translate(0.666687)"/>
</clipPath>
</defs>
</svg>
