<svg width="24" height="25" viewBox="0 0 24 25" fill="none" xmlns="http://www.w3.org/2000/svg">
<path fill-rule="evenodd" clip-rule="evenodd" d="M4.9507 3.35942C5.72863 3.0364 6.56267 2.87012 7.405 2.87012C8.24733 2.87012 9.08138 3.0364 9.85931 3.35942C10.6372 3.68244 11.3438 4.15585 11.9383 4.7525L11.9417 4.75584L12 4.81495L12.0583 4.75585L12.0617 4.7525C12.6563 4.15585 13.3628 3.68244 14.1407 3.35942C14.9186 3.0364 15.7527 2.87012 16.595 2.87012C17.4373 2.87012 18.2714 3.0364 19.0493 3.35942C19.827 3.68233 20.5333 4.15552 21.1277 4.75188C23.6727 7.29757 23.7293 11.5067 20.7136 14.5789L20.7071 14.5855L12.7071 22.5855C12.5196 22.773 12.2652 22.8784 12 22.8784C11.7348 22.8784 11.4804 22.773 11.2929 22.5855L3.28634 14.5789C0.270638 11.5068 0.327258 7.29757 2.87229 4.75188C3.46674 4.15552 4.17303 3.68233 4.9507 3.35942ZM7.405 4.87012C6.8259 4.87012 6.25249 4.98443 5.71767 5.20651C5.18284 5.42859 4.69711 5.75406 4.28833 6.16425L4.28711 6.16548C2.59349 7.8591 2.38976 10.8076 4.71052 13.1747L12 20.4642L19.2895 13.1747C21.6102 10.8076 21.4065 7.8591 19.7129 6.16548L19.7117 6.16425C19.3029 5.75406 18.8172 5.42859 18.2823 5.20651C17.7475 4.98443 17.1741 4.87012 16.595 4.87012C16.0159 4.87012 15.4425 4.98443 14.9077 5.20651C14.3735 5.4283 13.8884 5.7532 13.4799 6.16264C13.4794 6.16317 13.4789 6.16371 13.4783 6.16425L12.7117 6.94091C12.5238 7.13124 12.2675 7.23838 12 7.23838C11.7325 7.23838 11.4762 7.13124 11.2883 6.94091L10.5217 6.16425C10.5211 6.16371 10.5206 6.16317 10.5201 6.16264C10.1116 5.7532 9.62646 5.4283 9.09234 5.20651C8.55751 4.98443 7.9841 4.87012 7.405 4.87012Z" fill="#253D4E"/>
</svg>
