<svg width="18" height="18" viewBox="0 0 18 18" fill="none" xmlns="http://www.w3.org/2000/svg">
<path fill-rule="evenodd" clip-rule="evenodd" d="M3 3.75C2.58921 3.75 2.25 4.08921 2.25 4.5V13.5C2.25 13.9108 2.58921 14.25 3 14.25H15C15.4108 14.25 15.75 13.9108 15.75 13.5V4.5C15.75 4.08921 15.4108 3.75 15 3.75H3ZM0.75 4.5C0.75 3.26079 1.76079 2.25 3 2.25H15C16.2392 2.25 17.25 3.26079 17.25 4.5V13.5C17.25 14.7392 16.2392 15.75 15 15.75H3C1.76079 15.75 0.75 14.7392 0.75 13.5V4.5Z" fill="#7E3F8F"/>
<path fill-rule="evenodd" clip-rule="evenodd" d="M0.885579 4.06985C1.12312 3.73051 1.59076 3.64798 1.9301 3.88552L9 8.83445L16.0699 3.88552C16.4092 3.64798 16.8769 3.73051 17.1144 4.06985C17.352 4.40918 17.2694 4.87683 16.9301 5.11437L9.4301 10.3644C9.17186 10.5451 8.82815 10.5451 8.56991 10.3644L1.06991 5.11437C0.73057 4.87683 0.648044 4.40918 0.885579 4.06985Z" fill="#7E3F8F"/>
</svg>
