<svg width="24" height="25" viewBox="0 0 24 25" fill="none" xmlns="http://www.w3.org/2000/svg">
<g clip-path="url(#clip0_0_613)">
<path fill-rule="evenodd" clip-rule="evenodd" d="M7 21.6284C7 20.5238 7.89543 19.6284 9 19.6284C10.1046 19.6284 11 20.5238 11 21.6284C11 22.733 10.1046 23.6284 9 23.6284C7.89543 23.6284 7 22.733 7 21.6284Z" fill="#253D4E"/>
<path fill-rule="evenodd" clip-rule="evenodd" d="M18 21.6284C18 20.5238 18.8954 19.6284 20 19.6284C21.1046 19.6284 22 20.5238 22 21.6284C22 22.733 21.1046 23.6284 20 23.6284C18.8954 23.6284 18 22.733 18 21.6284Z" fill="#253D4E"/>
<path fill-rule="evenodd" clip-rule="evenodd" d="M0 1.62842C0 1.07613 0.447715 0.628418 1 0.628418H5C5.47663 0.628418 5.88701 0.964803 5.98055 1.43216L6.82043 5.62842H23C23.298 5.62842 23.5805 5.76135 23.7705 5.99097C23.9605 6.2206 24.0381 6.523 23.9823 6.81575L22.3809 15.2132C22.2437 15.9038 21.868 16.5242 21.3195 16.9657C20.7738 17.405 20.0916 17.6394 19.3914 17.6284H9.68864C8.98837 17.6394 8.3062 17.405 7.76048 16.9657C7.21225 16.5244 6.83664 15.9043 6.69933 15.2141C6.69927 15.2138 6.69939 15.2144 6.69933 15.2141L5.02879 6.86762C5.02201 6.84001 5.01638 6.81195 5.01195 6.78349L4.18032 2.62842H1C0.447715 2.62842 0 2.1807 0 1.62842ZM7.22073 7.62842L8.66084 14.8236C8.70656 15.0538 8.83179 15.2606 9.01461 15.4078C9.19743 15.5549 9.42619 15.6331 9.66084 15.6286L9.68 15.6284H19.4L19.4192 15.6286C19.6538 15.6331 19.8826 15.5549 20.0654 15.4078C20.2474 15.2613 20.3723 15.0557 20.4185 14.8268L21.7913 7.62842H7.22073Z" fill="#253D4E"/>
</g>
<defs>
<clipPath id="clip0_0_613">
<rect width="24" height="24" fill="white" transform="translate(0 0.628418)"/>
</clipPath>
</defs>
</svg>
