<svg width="25" height="24" viewBox="0 0 25 24" fill="none" xmlns="http://www.w3.org/2000/svg">
<path d="M21.9333 21.5999V14.5679C21.9333 11.1119 21.1893 8.47192 17.1573 8.47192C15.2133 8.47192 13.9173 9.52792 13.3893 10.5359H13.3413V8.78392H9.52533V21.5999H13.5093V15.2399C13.5093 13.5599 13.8213 11.9519 15.8853 11.9519C17.9253 11.9519 17.9493 13.8479 17.9493 15.3359V21.5759H21.9333V21.5999Z" fill="white"/>
<path d="M3.04535 8.78394H7.02935V21.5999H3.04535V8.78394Z" fill="white"/>
<path d="M5.03734 2.40002C3.76534 2.40002 2.73334 3.43202 2.73334 4.70402C2.73334 5.97602 3.76534 7.03202 5.03734 7.03202C6.30934 7.03202 7.34134 5.97602 7.34134 4.70402C7.34134 3.43202 6.30934 2.40002 5.03734 2.40002Z" fill="white"/>
</svg>
