<svg width="21" height="20" viewBox="0 0 21 20" fill="none" xmlns="http://www.w3.org/2000/svg">
<path fill-rule="evenodd" clip-rule="evenodd" d="M16.4702 3.57745C16.7956 3.90289 16.7956 4.43053 16.4702 4.75596L4.80355 16.4226C4.47811 16.7481 3.95047 16.7481 3.62503 16.4226C3.2996 16.0972 3.2996 15.5696 3.62503 15.2441L15.2917 3.57745C15.6171 3.25201 16.1448 3.25201 16.4702 3.57745Z" fill="#253D4E"/>
<path fill-rule="evenodd" clip-rule="evenodd" d="M5.46429 4.16667C4.77393 4.16667 4.21429 4.72631 4.21429 5.41667C4.21429 6.10702 4.77393 6.66667 5.46429 6.66667C6.15465 6.66667 6.71429 6.10702 6.71429 5.41667C6.71429 4.72631 6.15465 4.16667 5.46429 4.16667ZM2.54762 5.41667C2.54762 3.80584 3.85346 2.5 5.46429 2.5C7.07512 2.5 8.38096 3.80584 8.38096 5.41667C8.38096 7.0275 7.07512 8.33333 5.46429 8.33333C3.85346 8.33333 2.54762 7.0275 2.54762 5.41667Z" fill="#253D4E"/>
<path fill-rule="evenodd" clip-rule="evenodd" d="M14.631 13.3333C13.9406 13.3333 13.381 13.8929 13.381 14.5833C13.381 15.2736 13.9406 15.8333 14.631 15.8333C15.3213 15.8333 15.881 15.2736 15.881 14.5833C15.881 13.8929 15.3213 13.3333 14.631 13.3333ZM11.7143 14.5833C11.7143 12.9725 13.0201 11.6666 14.631 11.6666C16.2418 11.6666 17.5476 12.9725 17.5476 14.5833C17.5476 16.1941 16.2418 17.5 14.631 17.5C13.0201 17.5 11.7143 16.1941 11.7143 14.5833Z" fill="#253D4E"/>
</svg>
