<svg xmlns="http://www.w3.org/2000/svg" width="18" height="18" viewBox="0 0 18 18">
  <g id="vuesax_bulk_lamp-on" data-name="vuesax/bulk/lamp-on" transform="translate(-486 -188)">
    <g id="lamp-on" transform="translate(486 188)">
      <path id="Vector" d="M11.43,3.268A5.936,5.936,0,0,0,7.395.148,6.059,6.059,0,0,0,2.257,1.333,5.98,5.98,0,0,0,0,6.036a6.491,6.491,0,0,0,2.918,5.153v.622a1.006,1.006,0,0,0,.24.8,1.294,1.294,0,0,0,.96.3H7.965a1.253,1.253,0,0,0,.922-.322,1.122,1.122,0,0,0,.27-.87v-.525A6.285,6.285,0,0,0,11.43,3.268Z" transform="translate(2.978 1.502)" fill="#ff3f34" opacity="0.4"/>
      <path id="Vector-2" data-name="Vector" d="M5.406,1.388a.471.471,0,0,1-.143-.023,8.4,8.4,0,0,0-4.6,0,.524.524,0,0,1-.645-.36A.518.518,0,0,1,.381.36a9.479,9.479,0,0,1,5.175,0,.521.521,0,0,1,.36.645A.542.542,0,0,1,5.406,1.388Z" transform="translate(6.039 15.112)" fill="#ff3f34"/>
      <path id="Vector-3" data-name="Vector" d="M0,0H18V18H0Z" fill="none" opacity="0"/>
    </g>
  </g>
</svg>
