<svg width="25" height="25" viewBox="0 0 25 25" fill="none" xmlns="http://www.w3.org/2000/svg">
<path fill-rule="evenodd" clip-rule="evenodd" d="M11.5 4.87842C7.63401 4.87842 4.5 8.01242 4.5 11.8784C4.5 15.7444 7.63401 18.8784 11.5 18.8784C15.366 18.8784 18.5 15.7444 18.5 11.8784C18.5 8.01242 15.366 4.87842 11.5 4.87842ZM2.5 11.8784C2.5 6.90786 6.52944 2.87842 11.5 2.87842C16.4706 2.87842 20.5 6.90786 20.5 11.8784C20.5 16.849 16.4706 20.8784 11.5 20.8784C6.52944 20.8784 2.5 16.849 2.5 11.8784Z" fill="white"/>
<path fill-rule="evenodd" clip-rule="evenodd" d="M16.4429 16.8213C16.8334 16.4308 17.4666 16.4308 17.8571 16.8213L22.2071 21.1713C22.5976 21.5619 22.5976 22.195 22.2071 22.5855C21.8166 22.9761 21.1834 22.9761 20.7929 22.5855L16.4429 18.2355C16.0524 17.845 16.0524 17.2119 16.4429 16.8213Z" fill="white"/>
</svg>
