<svg width="14" height="14" viewBox="0 0 14 14" fill="none" xmlns="http://www.w3.org/2000/svg">
<path d="M10.9457 8.54673C10.773 8.71407 10.6937 8.95607 10.733 9.1934L11.3257 12.4734C11.3757 12.7514 11.2583 13.0327 11.0257 13.1934C10.7977 13.3601 10.4943 13.3801 10.2457 13.2467L7.29299 11.7067C7.19032 11.6521 7.07632 11.6227 6.95965 11.6194H6.77899C6.71632 11.6287 6.65499 11.6487 6.59899 11.6794L3.64565 13.2267C3.49965 13.3001 3.33432 13.3261 3.17232 13.3001C2.77765 13.2254 2.51432 12.8494 2.57899 12.4527L3.17232 9.17273C3.21165 8.9334 3.13232 8.69007 2.95965 8.52007L0.552319 6.18673C0.350986 5.9914 0.280986 5.69807 0.372986 5.4334C0.462319 5.1694 0.690319 4.97673 0.965653 4.9334L4.27899 4.45273C4.53099 4.42673 4.75232 4.2734 4.86565 4.04673L6.32565 1.0534C6.36032 0.986733 6.40499 0.925399 6.45899 0.873399L6.51899 0.826733C6.55032 0.792066 6.58632 0.763399 6.62632 0.740066L6.69899 0.713399L6.81232 0.666733H7.09299C7.34365 0.692733 7.56432 0.842733 7.67965 1.06673L9.15899 4.04673C9.26565 4.26473 9.47299 4.41607 9.71232 4.45273L13.0257 4.9334C13.3057 4.9734 13.5397 5.16673 13.6323 5.4334C13.7197 5.70073 13.6443 5.99407 13.439 6.18673L10.9457 8.54673Z" fill="#FDC040"/>
</svg>
